<svg version="1.1" id="Layer_1" xmlns="http://www.w3.org/2000/svg" xmlns:xlink="http://www.w3.org/1999/xlink" x="0px" y="0px"
	 width="100%" viewBox="0 0 257 156" enable-background="new 0 0 257 156" xml:space="preserve">
<path fill="#F4F4F4" opacity="1.000000" stroke="none" 
	d="
M152.000000,157.000000 
	C101.333336,157.000000 51.166672,157.000000 1.000007,157.000000 
	C1.000005,105.000008 1.000005,53.000011 1.000002,1.000014 
	C86.666656,1.000009 172.333313,1.000009 258.000000,1.000005 
	C258.000000,52.999985 258.000000,104.999969 258.000000,156.999969 
	C222.833328,157.000000 187.666672,157.000000 152.000000,157.000000 
M83.091072,122.385208 
	C83.744278,122.552986 84.397491,122.720757 85.979141,122.957840 
	C92.922455,122.953552 99.865776,122.949265 107.307091,122.767616 
	C107.537346,122.508560 107.767601,122.249504 108.193810,121.623978 
	C108.193810,121.623978 108.287682,121.219147 108.948265,121.046539 
	C113.097237,116.005592 117.856941,111.345505 121.282082,105.853165 
	C132.089905,88.522408 142.369461,70.862801 152.917007,53.368767 
	C155.812515,48.566288 157.563614,48.497650 160.931198,52.901779 
	C163.141739,55.792732 165.187653,58.809559 167.506805,62.400543 
	C169.980118,65.942436 172.453445,69.484329 175.054138,73.679626 
	C175.636581,74.326157 176.219025,74.972679 176.881668,76.219696 
	C177.827362,77.511444 178.773056,78.803192 179.854401,80.737320 
	C180.526398,81.579765 181.198395,82.422203 182.020218,83.922607 
	C184.897247,88.148422 187.826660,92.340210 190.611267,96.626076 
	C191.239624,97.593201 191.926666,99.080086 191.614273,99.996109 
	C190.670364,102.763931 189.248367,105.368713 187.666672,108.412926 
	C187.439789,109.136459 187.212906,109.859993 186.286209,110.953835 
	C185.047318,112.575668 183.808411,114.197495 181.820969,115.984573 
	C179.859665,114.897690 177.174713,114.300293 176.054657,112.644386 
	C168.851654,101.995338 162.023026,91.093750 154.983139,80.332870 
	C153.961105,78.770653 152.466263,77.517731 151.207443,76.140533 
	C139.233353,86.363625 138.538559,90.358070 146.724197,102.711830 
	C150.620773,108.592537 154.909698,114.213257 159.560883,120.526726 
	C167.434265,120.789955 175.307663,121.053185 183.762390,121.293144 
	C184.224060,121.006905 184.685730,120.720673 185.842606,120.251549 
	C197.651382,108.548172 198.703751,98.159195 189.408569,84.958244 
	C188.932709,84.282471 188.391190,83.652931 187.757996,82.374260 
	C187.196579,81.745605 186.635178,81.116951 185.722824,79.807114 
	C185.246429,79.714645 184.770020,79.622177 184.216507,79.507027 
	C184.216507,79.507027 184.170609,79.449036 184.858109,79.227730 
	C184.832901,78.988304 184.807693,78.748878 184.693451,78.174225 
	C184.693451,78.174225 184.411407,77.972321 184.235901,77.268669 
	C179.993576,71.015976 175.751251,64.763283 171.242416,57.801025 
	C169.167648,54.865257 167.092880,51.929489 164.892532,48.345898 
	C164.330063,47.685219 163.767593,47.024536 163.025970,45.732624 
	C160.375229,44.271378 157.724487,42.810131 154.357574,40.840885 
	C147.549393,41.116291 140.741211,41.391697 133.198715,41.670513 
	C130.505646,44.001934 127.154839,45.892456 125.241570,48.746616 
	C119.264053,57.663696 113.829674,66.944862 107.487228,75.788261 
	C105.604813,74.745949 103.722397,73.703636 101.850060,71.937897 
	C101.530617,67.172325 94.401939,60.305847 88.911255,60.275070 
	C68.207436,60.159008 70.098602,56.973507 60.084980,76.401566 
	C59.628834,77.286552 58.887531,78.217415 58.901398,79.117325 
	C58.952492,82.433578 58.276852,86.259644 59.678291,88.956688 
	C62.988323,95.326775 67.086433,101.339645 71.336639,107.152763 
	C74.890953,112.014099 79.112839,116.387329 83.023987,121.370117 
	C83.023987,121.370117 83.076057,121.760353 83.091072,122.385208 
z"/>
<path fill="#2F2F2F" opacity="1.000000" stroke="none" 
	d="
M155.073746,41.348885 
	C157.724487,42.810131 160.375229,44.271378 163.089630,46.423950 
	C163.774887,47.741421 164.396484,48.367573 165.018097,48.993725 
	C167.092880,51.929489 169.167648,54.865257 170.972290,58.245987 
	C170.454163,58.807953 170.206131,58.924961 169.645630,59.076839 
	C168.891037,59.738865 168.448914,60.366024 167.825562,61.181671 
	C167.531982,61.503441 167.419647,61.636726 167.307297,61.770016 
	C165.187653,58.809559 163.141739,55.792732 160.931198,52.901779 
	C157.563614,48.497650 155.812515,48.566288 152.917007,53.368767 
	C142.369461,70.862801 132.089905,88.522408 121.282082,105.853165 
	C117.856941,111.345505 113.097237,116.005592 108.185143,121.035385 
	C105.948311,120.972260 104.474602,120.920303 102.979721,120.472809 
	C101.209900,119.385376 99.490089,118.201134 97.707024,118.096703 
	C92.939194,117.817436 88.144226,118.001564 83.480392,118.001564 
	C83.672394,118.361183 84.329903,119.592720 84.661469,120.843712 
	C83.903381,120.901009 83.471245,120.938858 83.039108,120.976707 
	C79.112839,116.387329 74.890953,112.014099 71.336639,107.152763 
	C67.086433,101.339645 62.988323,95.326775 59.678291,88.956688 
	C58.276852,86.259644 58.952492,82.433578 58.901398,79.117325 
	C58.887531,78.217415 59.628834,77.286552 60.084980,76.401566 
	C70.098602,56.973507 68.207436,60.159008 88.911255,60.275070 
	C94.401939,60.305847 101.530617,67.172325 101.568405,72.506683 
	C99.478203,76.063499 97.697784,79.069000 95.854630,82.035530 
	C92.963127,86.689323 90.302727,86.789696 87.249168,82.306587 
	C84.252716,77.907303 81.444855,73.377571 78.385063,69.023994 
	C75.537018,64.971695 73.110977,65.145584 70.600784,69.498001 
	C68.690269,72.810638 67.181953,76.374329 65.080185,79.552177 
	C63.013359,82.677185 63.354660,85.436371 65.276031,88.279373 
	C70.466309,95.959297 75.636070,103.654060 80.923019,111.267189 
	C82.931343,114.159164 85.435600,114.237419 87.278946,111.193214 
	C94.333710,99.542618 101.229584,87.795799 108.184776,76.084908 
	C113.829674,66.944862 119.264053,57.663696 125.241570,48.746616 
	C127.154839,45.892456 130.505646,44.001934 133.767044,42.064388 
	C140.711349,42.616322 147.087051,42.812943 153.463867,42.862091 
	C153.996567,42.866192 154.536926,41.876728 155.073746,41.348885 
M117.543648,68.285316 
	C117.282730,68.011375 117.021812,67.737434 116.760895,67.463486 
	C116.647453,67.571579 116.534012,67.679672 116.420578,67.787773 
	C116.681824,68.061768 116.943062,68.335770 117.543648,68.285316 
z"/>
<path fill="#EDEDED" opacity="1.000000" stroke="none" 
	d="
M107.835999,75.936584 
	C101.229584,87.795799 94.333710,99.542618 87.278946,111.193214 
	C85.435600,114.237419 82.931343,114.159164 80.923019,111.267189 
	C75.636070,103.654060 70.466309,95.959297 65.276031,88.279373 
	C63.354660,85.436371 63.013359,82.677185 65.080185,79.552177 
	C67.181953,76.374329 68.690269,72.810638 70.600784,69.498001 
	C73.110977,65.145584 75.537018,64.971695 78.385063,69.023994 
	C81.444855,73.377571 84.252716,77.907303 87.249168,82.306587 
	C90.302727,86.789696 92.963127,86.689323 95.854630,82.035530 
	C97.697784,79.069000 99.478203,76.063499 101.563370,72.868401 
	C103.722397,73.703636 105.604813,74.745949 107.835999,75.936584 
z"/>
<path fill="#313131" opacity="1.000000" stroke="none" 
	d="
M185.147385,120.434433 
	C184.685730,120.720673 184.224060,121.006905 183.197037,120.961502 
	C177.517700,120.416687 172.404831,120.169731 167.289307,120.003960 
	C164.535492,119.914711 161.777191,119.964622 159.020905,119.951752 
	C154.909698,114.213257 150.620773,108.592537 146.724197,102.711830 
	C138.538559,90.358070 139.233353,86.363625 151.207443,76.140533 
	C152.466263,77.517731 153.961105,78.770653 154.983139,80.332870 
	C162.023026,91.093750 168.851654,101.995338 176.054657,112.644386 
	C177.174713,114.300293 179.859665,114.897690 182.531982,116.098816 
	C183.877792,117.620186 184.512589,119.027313 185.147385,120.434433 
z"/>
<path fill="#2F2F2F" opacity="1.000000" stroke="none" 
	d="
M185.494995,120.342987 
	C184.512589,119.027313 183.877792,117.620186 182.906250,116.016190 
	C183.808411,114.197495 185.047318,112.575668 186.789978,110.591843 
	C187.533417,109.498924 187.773071,108.767982 188.012726,108.037041 
	C189.248367,105.368713 190.670364,102.763931 191.614273,99.996109 
	C191.926666,99.080086 191.239624,97.593201 190.611267,96.626076 
	C187.826660,92.340210 184.897247,88.148422 182.206940,83.222961 
	C183.026978,81.525444 183.660294,80.527573 184.293610,79.529709 
	C184.770020,79.622177 185.246429,79.714645 185.893280,80.510437 
	C186.669235,81.809799 187.274734,82.405838 187.880249,83.001869 
	C188.391190,83.652931 188.932709,84.282471 189.408569,84.958244 
	C198.703751,98.159195 197.651382,108.548172 185.494995,120.342987 
z"/>
<path fill="#2F2F2F" opacity="1.000000" stroke="none" 
	d="
M174.926773,73.026215 
	C172.453445,69.484329 169.980118,65.942436 167.407043,62.085281 
	C167.419647,61.636726 167.531982,61.503441 168.138550,61.137955 
	C169.074539,60.284492 169.516312,59.663235 169.958084,59.041973 
	C170.206131,58.924961 170.454163,58.807953 171.105560,58.600769 
	C175.751251,64.763283 179.993576,71.015976 184.107620,77.724609 
	C184.247055,78.290184 184.514786,78.399818 184.782501,78.509460 
	C184.807693,78.748878 184.832901,78.988304 184.227570,79.526764 
	C182.304276,79.915504 181.011520,80.005219 179.718750,80.094940 
	C178.773056,78.803192 177.827362,77.511444 176.863327,75.541267 
	C176.205582,74.250633 175.566177,73.638428 174.926773,73.026215 
z"/>
<path fill="#5A5A5A" opacity="1.000000" stroke="none" 
	d="
M154.715668,41.094883 
	C154.536926,41.876728 153.996567,42.866192 153.463867,42.862091 
	C147.087051,42.812943 140.711349,42.616322 134.134201,42.062683 
	C140.741211,41.391697 147.549393,41.116291 154.715668,41.094883 
z"/>
<path fill="#1D1D1D" opacity="1.000000" stroke="none" 
	d="
M159.290894,120.239243 
	C161.777191,119.964622 164.535492,119.914711 167.289307,120.003960 
	C172.404831,120.169731 177.517700,120.416687 182.906372,120.973129 
	C175.307663,121.053185 167.434265,120.789955 159.290894,120.239243 
z"/>
<path fill="#676767" opacity="1.000000" stroke="none" 
	d="
M103.000893,120.868332 
	C104.474602,120.920303 105.948311,120.972260 107.854851,121.121689 
	C108.287682,121.219147 108.193810,121.623978 107.813965,121.824356 
	C107.225769,122.331474 107.017426,122.638222 106.809082,122.944977 
	C99.865776,122.949265 92.922455,122.953552 85.380272,122.645294 
	C84.212952,122.141945 83.644508,121.951149 83.076057,121.760353 
	C83.076057,121.760353 83.023987,121.370117 83.031548,121.173416 
	C83.471245,120.938858 83.903381,120.901009 85.127823,120.905396 
	C91.613716,120.921196 97.307304,120.894768 103.000893,120.868332 
z"/>
<path fill="#333333" opacity="1.000000" stroke="none" 
	d="
M179.786575,80.416122 
	C181.011520,80.005219 182.304276,79.915504 183.883820,79.637413 
	C184.170609,79.449036 184.216507,79.507027 184.255066,79.518364 
	C183.660294,80.527573 183.026978,81.525444 182.132019,82.893974 
	C181.198395,82.422203 180.526398,81.579765 179.786575,80.416122 
z"/>
<path fill="#313131" opacity="1.000000" stroke="none" 
	d="
M187.839691,108.224983 
	C187.773071,108.767982 187.533417,109.498924 187.139893,110.406693 
	C187.212906,109.859993 187.439789,109.136459 187.839691,108.224983 
z"/>
<path fill="#333333" opacity="1.000000" stroke="none" 
	d="
M164.955322,48.669811 
	C164.396484,48.367573 163.774887,47.741421 163.179199,46.739563 
	C163.767593,47.024536 164.330063,47.685219 164.955322,48.669811 
z"/>
<path fill="#333333" opacity="1.000000" stroke="none" 
	d="
M174.990448,73.352921 
	C175.566177,73.638428 176.205582,74.250633 176.823212,75.241020 
	C176.219025,74.972679 175.636581,74.326157 174.990448,73.352921 
z"/>
<path fill="#333333" opacity="1.000000" stroke="none" 
	d="
M187.819122,82.688065 
	C187.274734,82.405838 186.669235,81.809799 186.068756,80.851036 
	C186.635178,81.116951 187.196579,81.745605 187.819122,82.688065 
z"/>
<path fill="#FCFCFC" opacity="1.000000" stroke="none" 
	d="
M83.083565,122.072784 
	C83.644508,121.951149 84.212952,122.141945 84.916046,122.610641 
	C84.397491,122.720757 83.744278,122.552986 83.083565,122.072784 
z"/>
<path fill="#333333" opacity="1.000000" stroke="none" 
	d="
M184.737976,78.341843 
	C184.514786,78.399818 184.247055,78.290184 184.195374,78.076431 
	C184.411407,77.972321 184.693451,78.174225 184.737976,78.341843 
z"/>
<path fill="#FCFCFC" opacity="1.000000" stroke="none" 
	d="
M107.058090,122.856293 
	C107.017426,122.638222 107.225769,122.331474 107.715981,122.007584 
	C107.767601,122.249504 107.537346,122.508560 107.058090,122.856293 
z"/>
<path fill="#303030" opacity="1.000000" stroke="none" 
	d="
M102.979721,120.472809 
	C97.307304,120.894768 91.613716,120.921196 85.453773,120.885941 
	C84.329903,119.592720 83.672394,118.361183 83.480392,118.001564 
	C88.144226,118.001564 92.939194,117.817436 97.707024,118.096703 
	C99.490089,118.201134 101.209900,119.385376 102.979721,120.472809 
z"/>
<path fill="#333333" opacity="1.000000" stroke="none" 
	d="
M169.645630,59.076839 
	C169.516312,59.663235 169.074539,60.284492 168.319763,60.949467 
	C168.448914,60.366024 168.891037,59.738865 169.645630,59.076839 
z"/>
<path fill="#303030" opacity="1.000000" stroke="none" 
	d="
M117.373978,68.447540 
	C116.943062,68.335770 116.681824,68.061768 116.420578,67.787773 
	C116.534012,67.679672 116.647453,67.571579 116.760895,67.463486 
	C117.021812,67.737434 117.282730,68.011375 117.373978,68.447540 
z"/>
</svg>